PathFileType	4	(X/Y/Z)	C:/Users/beibeiliu/ov580/test_trc/User1\sequence.16_training_dense_left.trc
DataRate	CameraRate	NumFrames	NumMarkers	Units	OrigDataRate	OrigDataStartFrame	OrigNumFrames
120	120	8	19	mm	120	1	39
Frame#	Time	ThumbCMC			ThumbMCP			ThumbIP			ThumbTip			IndexMCP			IndexPIP			IndexTip			MiddleMCP			MiddlePIP			MiddleTip			RingMCP			RingPIP			RingTip			PinkyMCP			PinkyPIP			PinkyTip			BackHand1			BackHand2			BackHand3	
		X0	Y0	Z0	X1	Y1	Z1	X2	Y2	Z2	X3	Y3	Z3	X4	Y4	Z4	X5	Y5	Z5	X6	Y6	Z6	X7	Y7	Z7	X8	Y8	Z8	X9	Y9	Z9	X10	Y10	Z10	X11	Y11	Z11	X12	Y12	Z12	X13	Y13	Z13	X14	Y14	Z14	X15	Y15	Z15	X16	Y16	Z16	X17	Y17	Z17	X18	Y18	Z18	
0	0	-113.412	11.0756	131.923	-89.8308	-8.68704	114.342	-70.9562	-18.5108	93.7839	-60.3454	-33.3352	70.9937	-113.354	26.5839	45.8996	-102.203	19.8563	20.6153	-91.2812	2.45735	-5.87639	-138.914	25.2603	32.186	-132.28	20.8753	2.28587	-124.788	6.99581	-25.9494	-158.322	11.7864	30.8262	-154.281	7.5429	5.73749	-147.57	-5.14085	-17.8047	-182.413	-11.5926	43.2287	-179.754	-18.5331	25.3408	-169.331	-24.7983	-0.0751577	-174.288	19.6293	86.3921	-185.775	18.7791	123.686	-148.749	31.7325	111.735	
1	0.00833333	-116.347	12.3559	130.269	-90.5036	-4.31072	112.4	-78.056	-13.1282	90.0705	-64.0876	-26.8393	68.1577	-116.658	32.2079	46.3798	-104.618	23.8941	17.8595	-93.0351	3.11128	-2.84557	-140.644	30.3059	31.9522	-134.4	27.4201	6.89355	-126.079	13.6614	-24.0996	-165.196	14.5158	33.5217	-154.893	12.5458	7.34875	-146.42	0.614364	-21.1305	-181.925	-7.25295	48.4664	-179.986	-15.4063	21.2756	-174.917	-16.9269	0.244851	-179.457	17.829	91.4622	-186.962	18.9668	123.522	-150.558	32.6137	112.733	
2	0.0166667	-118.408	14.8384	132.742	-94.5285	1.14857	112.469	-76.3138	-4.20328	84.4939	-68.9458	-14.6234	66.7982	-115.209	44.0044	47.5819	-108.535	34.527	22.1853	-92.0195	13.4254	6.9351	-147.915	39.9638	38.3667	-138.199	39.5449	8.88266	-126.569	29.5933	-19.2495	-164.651	25.9952	39.7928	-157.521	24.5837	5.81832	-150.645	16.0483	-18.6103	-185.288	-0.463711	47.9799	-183.261	-5.53063	24.2529	-176.852	-4.8277	1.49537	-182.652	21.1912	93.7864	-187.532	17.425	126.164	-155.605	34.1499	118.575	
3	0.025	-116.402	22.9277	128.7	-97.0166	9.90482	105.681	-82.2903	6.95122	80.851	-73.2376	-1.74438	60.5062	-121.988	56.2973	50.4777	-105.949	46.0155	23.9576	-99.0871	18.0222	16.955	-151.787	56.0162	45.0727	-143.744	58.4763	10.9043	-133.106	48.1037	-17.039	-170.106	42.7263	42.0484	-166.61	46.0763	11.168	-158.839	43.3607	-10.4509	-186.164	13.9385	51.6251	-187.644	14.3101	26.3529	-188.286	16.9455	2.49968	-183.17	29.0212	94.277	-192.682	19.7824	126.369	-157.03	41.8174	119.841	
4	0.0333333	-122.834	21.4673	129.023	-98.434	12.4973	100.334	-83.992	9.37867	77.4623	-77.7284	1.93064	51.567	-121.886	62.2855	54.9005	-110.138	49.9291	27.2819	-98.0368	18.1364	25.7233	-152.653	67.8846	43.0592	-143.627	69.4882	12.007	-134.959	61.5242	-13.5592	-178.423	48.9853	44.1162	-171.598	60.6303	13.6888	-166.161	58.2061	-12.5325	-195.423	19.2841	49.3276	-193.783	24.9681	28.9062	-197.539	29.9604	3.53746	-187.218	34.1105	95.842	-189.803	25.3306	127.218	-159.223	43.2127	120.053	
5	0.0416667	-123.199	21.3374	124.29	-100.308	10.4873	100.297	-87.5245	8.2813	72.7375	-79.308	-1.38549	49.334	-121.862	56.1236	53.1941	-109.782	36.0341	25.0606	-98.2971	8.43193	31.7864	-155.645	57.8854	38.8712	-144.499	62.0771	11.0663	-134.898	51.326	-17.9479	-179.425	42.3053	41.7011	-174.706	52.5737	10.9333	-168.601	51.3662	-12.2652	-194.188	15.0965	49.4948	-194.803	19.025	29.3684	-195.509	21.7916	1.7949	-185.414	28.1037	97.1353	-192.962	18.6466	125.54	-158.326	40.5135	119.518	
6	0.05	-129.004	37.2087	122.493	-100.682	30.336	100.498	-88.8477	23.9396	78.8655	-78.1158	14.4793	55.5697	-132.512	46.0735	37.9481	-111.236	34.5829	22.7374	-91.6364	9.85	37.1493	-160.28	34.9373	27.02	-147.775	36.9119	3.01149	-129.303	26.1398	-25.5521	-174.016	18.0982	36.8613	-170.138	19.9836	5.01682	-157.485	19.1645	-22.4362	-183.094	-13.5608	47.3066	-179.459	-13.0127	21.1906	-173.648	-11.9388	-2.13197	-184.216	11.617	91.3994	-195.276	6.31779	121.764	-172.264	37.102	110.882	
7	0.0583333	-156.274	55.0653	111.313	-125.242	61.6666	90.8971	-105.41	59.4616	65.1896	-85.4413	48.9507	50.4259	-144.741	31.4591	25.7793	-112.268	30.9312	16.3643	-89.4784	28.9328	37.5303	-155.772	2.81911	20.7519	-140.854	0.582433	-2.53722	-113.412	-1.22304	-26.7859	-157.957	-14.9152	34.5192	-146.767	-23.3873	6.22896	-131.245	-24.5061	-14.4328	-148.803	-39.8907	55.0307	-140.67	-42.8519	37.1038	-127.866	-46.4617	10.4268	-176.196	-14.0921	90.0508	-187.295	-9.52965	118.23	-186.044	26.1251	95.9756	
